<svg xmlns="http://www.w3.org/2000/svg" width="30" height="20" viewBox="0 0 30 20">
  <g id="email" transform="translate(0 -85.333)">
    <g id="Group_20749" data-name="Group 20749" transform="translate(0 85.333)">
      <path id="Path_127169" data-name="Path 127169" d="M28.461,85.333H1.538A1.543,1.543,0,0,0,0,86.871v16.923a1.543,1.543,0,0,0,1.538,1.538H28.462A1.543,1.543,0,0,0,30,103.795V86.871A1.543,1.543,0,0,0,28.461,85.333Zm-.577,1.154-12,9a1.609,1.609,0,0,1-1.77,0l-12-9Zm-6.41,9.594,6.538,8.077c.007.008.015.014.022.022H1.965c.007-.008.015-.013.022-.022l6.538-8.077a.577.577,0,0,0-.9-.726l-6.475,8V87.208l12.269,9.2a2.754,2.754,0,0,0,3.154,0l12.269-9.2v16.145l-6.474-8a.577.577,0,0,0-.9.726Z" transform="translate(0 -85.333)" fill="#d82221"/>
    </g>
  </g>
</svg>
