<svg id="envelope" xmlns="http://www.w3.org/2000/svg" width="26" height="20" viewBox="0 0 26 20">
  <g id="Group_7346" data-name="Group 7346">
    <path id="Path_19576" data-name="Path 19576" d="M23.5,61.351q-.493.361-2.974,2.144t-3.8,2.746q-.145.106-.616.459t-.783.572q-.312.218-.755.489a4.306,4.306,0,0,1-.834.406,2.225,2.225,0,0,1-.725.135h-.029a2.227,2.227,0,0,1-.726-.135,4.311,4.311,0,0,1-.834-.406q-.442-.271-.754-.489T9.888,66.7q-.471-.354-.617-.459-1.335-.963-6.79-4.891A7.03,7.03,0,0,1,.711,59.5,4.076,4.076,0,0,1,0,57.228a2.349,2.349,0,0,1,.689-1.7,2.2,2.2,0,0,1,1.632-.707H23.679A2.041,2.041,0,0,1,25.4,55.6a3.114,3.114,0,0,1,.6,1.956,3.59,3.59,0,0,1-.8,2.054A7.334,7.334,0,0,1,23.5,61.351Z" transform="translate(0 -54.82)" fill="#d82221"/>
    <path id="Path_19577" data-name="Path 19577" d="M1.451,185.657q4.758,3.112,7.225,4.837.827.589,1.342.918a8.4,8.4,0,0,0,1.371.673,4.3,4.3,0,0,0,1.6.343h.029a4.3,4.3,0,0,0,1.6-.343,8.4,8.4,0,0,0,1.371-.673q.515-.329,1.342-.918,1.959-1.388,7.211-4.837A7.619,7.619,0,0,0,26,184.437v11.131a2.124,2.124,0,0,1-.682,1.584,2.275,2.275,0,0,1-1.64.659H2.321a2.275,2.275,0,0,1-1.639-.659A2.123,2.123,0,0,1,0,195.568V184.437A7.932,7.932,0,0,0,1.451,185.657Z" transform="translate(0 -177.811)" fill="#d82221"/>
  </g>
</svg>
