<svg id="global" xmlns="http://www.w3.org/2000/svg" width="20" height="20" viewBox="0 0 20 20">
  <g id="Group_14525" data-name="Group 14525" transform="translate(2.096)">
    <g id="Group_14524" data-name="Group 14524" transform="translate(0 0)">
      <path id="Path_34871" data-name="Path 34871" d="M266.923.256a19.856,19.856,0,0,0-2.584,5.269,11.382,11.382,0,0,1-3.874-1.357l-.352-.218A9.828,9.828,0,0,1,266.923.256Z" transform="translate(-260.113 -0.256)"/>
    </g>
  </g>
  <g id="Group_14527" data-name="Group 14527" transform="translate(7.207 7.004)">
    <g id="Group_14526" data-name="Group 14526">
      <path id="Path_34872" data-name="Path 34872" d="M170.657,166.4a21.618,21.618,0,0,0,4.925,0,13.435,13.435,0,0,1,.331,2.251h-5.586A13.435,13.435,0,0,1,170.657,166.4Z" transform="translate(-170.326 -166.4)"/>
    </g>
  </g>
  <g id="Group_14529" data-name="Group 14529" transform="translate(7.925 14.418)">
    <g id="Group_14528" data-name="Group 14528">
      <path id="Path_34873" data-name="Path 34873" d="M189.808,340.48a20.407,20.407,0,0,1,2.075.108,18.884,18.884,0,0,1-2.075,4.3,18.886,18.886,0,0,1-2.075-4.3A20.407,20.407,0,0,1,189.808,340.48Z" transform="translate(-187.733 -340.48)"/>
    </g>
  </g>
  <g id="Group_14531" data-name="Group 14531" transform="translate(0 10.776)">
    <g id="Group_14530" data-name="Group 14530">
      <path id="Path_34874" data-name="Path 34874" d="M337.31,255.147a14.9,14.9,0,0,0,.336,2.467,12.592,12.592,0,0,0-4.252,1.528l-.4.248a9.784,9.784,0,0,1-1.306-4.242Z" transform="translate(-331.69 -255.147)"/>
    </g>
  </g>
  <g id="Group_14533" data-name="Group 14533" transform="translate(0 4.983)">
    <g id="Group_14532" data-name="Group 14532">
      <path id="Path_34875" data-name="Path 34875" d="M333,118.118l.4.248a12.593,12.593,0,0,0,4.252,1.532,14.9,14.9,0,0,0-.336,2.462h-5.62A9.784,9.784,0,0,1,333,118.118Z" transform="translate(-331.69 -118.118)"/>
    </g>
  </g>
  <g id="Group_14535" data-name="Group 14535" transform="translate(7.207 10.745)">
    <g id="Group_14534" data-name="Group 14534">
      <path id="Path_34876" data-name="Path 34876" d="M175.911,255.147a13.431,13.431,0,0,1-.332,2.251,21.7,21.7,0,0,0-4.925,0,13.432,13.432,0,0,1-.329-2.251Z" transform="translate(-170.325 -255.147)"/>
    </g>
  </g>
  <g id="Group_14537" data-name="Group 14537" transform="translate(14.045 4.983)">
    <g id="Group_14536" data-name="Group 14536">
      <path id="Path_34877" data-name="Path 34877" d="M4.252,118.366l.4-.248a9.784,9.784,0,0,1,1.306,4.241H.336A14.9,14.9,0,0,0,0,119.9,12.593,12.593,0,0,0,4.252,118.366Z" transform="translate(0 -118.118)"/>
    </g>
  </g>
  <g id="Group_14539" data-name="Group 14539" transform="translate(11.094 14.732)">
    <g id="Group_14538" data-name="Group 14538">
      <path id="Path_34878" data-name="Path 34878" d="M53.426,348.109a11.4,11.4,0,0,1,3.874,1.356l.352.219a9.825,9.825,0,0,1-6.81,3.693A19.841,19.841,0,0,0,53.426,348.109Z" transform="translate(-50.842 -348.109)"/>
    </g>
  </g>
  <g id="Group_14541" data-name="Group 14541" transform="translate(7.925 1.178)">
    <g id="Group_14540" data-name="Group 14540">
      <path id="Path_34879" data-name="Path 34879" d="M189.808,28.826a18.893,18.893,0,0,1,2.075,4.3,20.063,20.063,0,0,1-4.151,0A18.892,18.892,0,0,1,189.808,28.826Z" transform="translate(-187.733 -28.826)"/>
    </g>
  </g>
  <g id="Group_14543" data-name="Group 14543" transform="translate(2.098 14.732)">
    <g id="Group_14542" data-name="Group 14542">
      <path id="Path_34880" data-name="Path 34880" d="M260.412,349.464a11.4,11.4,0,0,1,3.874-1.356,19.839,19.839,0,0,0,2.586,5.268,9.825,9.825,0,0,1-6.81-3.693Z" transform="translate(-260.062 -348.108)"/>
    </g>
  </g>
  <g id="Group_14545" data-name="Group 14545" transform="translate(11.092 0)">
    <g id="Group_14544" data-name="Group 14544" transform="translate(0 0)">
      <path id="Path_34881" data-name="Path 34881" d="M57.7,3.95l-.35.218a11.383,11.383,0,0,1-3.874,1.357A19.855,19.855,0,0,0,50.893.257,9.828,9.828,0,0,1,57.7,3.95Z" transform="translate(-50.893 -0.257)"/>
    </g>
  </g>
  <g id="Group_14547" data-name="Group 14547" transform="translate(14.045 10.776)">
    <g id="Group_14546" data-name="Group 14546">
      <path id="Path_34882" data-name="Path 34882" d="M.336,255.147h5.62a9.783,9.783,0,0,1-1.306,4.242l-.4-.248A12.594,12.594,0,0,0,0,257.614,14.892,14.892,0,0,0,.336,255.147Z" transform="translate(0 -255.147)"/>
    </g>
  </g>
</svg>
