<svg id="Group_11157" data-name="Group 11157" xmlns="http://www.w3.org/2000/svg" width="30" height="26" viewBox="0 0 30 26">
  <g id="monitor" transform="translate(0 0)">
    <g id="Group_63" data-name="Group 63">
      <g id="Group_62" data-name="Group 62">
        <path id="Path_9723" data-name="Path 9723" d="M28.189,27.937H1.811A1.789,1.789,0,0,0,0,29.7V47.416a1.789,1.789,0,0,0,1.811,1.762H10.85V50.46a2.164,2.164,0,0,1-2.191,2.131H6.667a.673.673,0,1,0,0,1.346H23.333a.673.673,0,1,0,0-1.346H21.341A2.164,2.164,0,0,1,19.15,50.46V49.178h9.039A1.789,1.789,0,0,0,30,47.416V29.7A1.789,1.789,0,0,0,28.189,27.937ZM11.48,52.592a3.4,3.4,0,0,0,.753-2.131V49.178h5.534V50.46a3.4,3.4,0,0,0,.753,2.131Zm17.137-5.175a.423.423,0,0,1-.428.416H1.811a.423.423,0,0,1-.428-.416V43.88H28.617Zm0-4.882H1.383V29.7a.423.423,0,0,1,.428-.416H28.189a.423.423,0,0,1,.428.416V42.535Z" transform="translate(0 -27.937)" fill="#d82221"/>
        <g id="Group_66" data-name="Group 66" transform="translate(11.061 4.83)">
          <path id="Path_9720" data-name="Path 9720" d="M210.532,306.043l1.131,1.717a7.721,7.721,0,0,1,4.5-3.52,12.172,12.172,0,0,0-4.449,5.266c-.033,0-.038-.022-.05-.036q-.833-1.05-1.667-2.1a.108.108,0,0,1-.015-.132c.177-.384.352-.769.527-1.154C210.516,306.073,210.523,306.062,210.532,306.043Z" transform="translate(-208.439 -303.619)" fill="#d82221"/>
          <path id="Path_9721" data-name="Path 9721" d="M171.088,286.3c-.139-.034-.271-.073-.407-.1a3.467,3.467,0,0,0-3.162.914,3.286,3.286,0,0,0-1,1.9,3.378,3.378,0,0,0,2.533,3.849,3.421,3.421,0,0,0,4.01-2.168,3.615,3.615,0,0,0,.072-2.288.085.085,0,0,1-.005-.066,2.477,2.477,0,0,1,.176.476,3.629,3.629,0,0,1-2.374,4.394,3.722,3.722,0,0,1-4.8-2.735,3.6,3.6,0,0,1,1.157-3.6A3.407,3.407,0,0,1,169.2,286a3.442,3.442,0,0,1,1.84.26l.034.015S171.081,286.287,171.088,286.3Z" transform="translate(-166.028 -285.975)" fill="#d82221"/>
        </g>
      </g>
    </g>
    <g id="Group_65" data-name="Group 65" transform="translate(14.218 17.115)">
      <g id="Group_64" data-name="Group 64">
        <circle id="Ellipse_4" data-name="Ellipse 4" cx="0.782" cy="0.782" r="0.782" fill="#d82221"/>
      </g>
    </g>
    <path id="Path_9726" data-name="Path 9726" d="M41.363,41.532v3.749" transform="translate(-36.884 -32.894)" fill="none" stroke="#d82221" stroke-linecap="round" stroke-width="1"/>
    <path id="Path_9727" data-name="Path 9727" d="M41.363,41.532v1.607" transform="translate(-36.884 -36.787)" fill="none" stroke="#d82221" stroke-linecap="round" stroke-width="1"/>
  </g>
</svg>
