<svg xmlns="http://www.w3.org/2000/svg" width="25" height="34" viewBox="0 0 25 34">
  <g id="location_1_" data-name="location (1)" transform="translate(-48.08)">
    <g id="Group_20748" data-name="Group 20748" transform="translate(48.08)">
      <g id="Group_20747" data-name="Group 20747" transform="translate(0)">
        <path id="Path_127167" data-name="Path 127167" d="M60.58,0a12.544,12.544,0,0,0-12.5,12.56A14.548,14.548,0,0,0,49.14,17.4a20.286,20.286,0,0,0,1.445,2.715l8.571,13.048a1.626,1.626,0,0,0,2.849,0L70.576,20.11A20.2,20.2,0,0,0,72.02,17.4a14.544,14.544,0,0,0,1.06-4.836A12.544,12.544,0,0,0,60.58,0ZM70.665,16.822A18.589,18.589,0,0,1,69.348,19.3L60.776,32.346c-.169.258-.223.258-.392,0L51.813,19.3A18.6,18.6,0,0,1,50.5,16.821a13.205,13.205,0,0,1-.946-4.261,11.03,11.03,0,1,1,22.059,0A13.216,13.216,0,0,1,70.665,16.822Z" transform="translate(-48.08)" fill="#d82221"/>
        <path id="Path_127168" data-name="Path 127168" d="M118.647,64.008a6.676,6.676,0,1,0,6.567,6.675A6.629,6.629,0,0,0,118.647,64.008Zm0,11.866a5.192,5.192,0,1,1,5.108-5.191A5.156,5.156,0,0,1,118.647,75.874Z" transform="translate(-106.147 -58.111)" fill="#d82221"/>
      </g>
    </g>
  </g>
</svg>
