<svg xmlns="http://www.w3.org/2000/svg" width="31" height="31" viewBox="0 0 31 31">
  <path id="Path_127165" data-name="Path 127165" d="M30,8.765a1.088,1.088,0,0,0-.064-.447c-.149-.447-1.193-.916-1.619-1.129-1.214-.682-2.45-1.342-3.643-2.045-.554-.341-1.236-.98-1.9-.98-1.3,0-3.2,3.857-4.347,3.857A4.58,4.58,0,0,1,16.6,7.188,21.2,21.2,0,0,1,7.884-1.527a4.58,4.58,0,0,1-.831-1.832c0-1.151,3.857-3.047,3.857-4.347,0-.661-.639-1.342-.98-1.9-.7-1.193-1.364-2.429-2.045-3.643-.213-.426-.682-1.47-1.129-1.619a1.088,1.088,0,0,0-.447-.064,9.48,9.48,0,0,0-2.962.661,5.614,5.614,0,0,0-2.259,2.6A8.143,8.143,0,0,0,0-7.706,16.412,16.412,0,0,0,1.47-2.123,19.917,19.917,0,0,0,3.239,1.606,35.97,35.97,0,0,0,13.466,11.833,19.917,19.917,0,0,0,17.195,13.6a16.412,16.412,0,0,0,5.582,1.47,8.143,8.143,0,0,0,3.963-1.087,5.614,5.614,0,0,0,2.6-2.259A9.48,9.48,0,0,0,30,8.765Z" transform="translate(0.5 15.429)" fill="none" stroke="#d82221" stroke-width="1"/>
</svg>
