<svg xmlns="http://www.w3.org/2000/svg" width="45" height="54" viewBox="0 0 45 54">
  <g id="share" transform="translate(-6.709 -5.309)">
    <path id="Path_127171" data-name="Path 127171" d="M47.286,23.429a7.714,7.714,0,1,0-7.68-8.391L21.521,28.3a7.714,7.714,0,1,0,0,13.4L39.6,54.962A7.7,7.7,0,1,0,39.917,52L23.568,40.012a7.679,7.679,0,0,0,0-10.023L39.916,18A7.731,7.731,0,0,0,47.286,23.429Zm0-12.857a5.143,5.143,0,1,1-5.143,5.143A5.148,5.148,0,0,1,47.286,10.571ZM12.571,35a5.143,5.143,0,1,1,5.143,5.143A5.148,5.148,0,0,1,12.571,35ZM47.286,49.143a5.143,5.143,0,1,1-5.143,5.143A5.148,5.148,0,0,1,47.286,49.143Z" transform="translate(-3.291 -2.691)" fill="#fff"/>
  </g>
</svg>
