<svg xmlns="http://www.w3.org/2000/svg" width="20" height="24" viewBox="0 0 20 24">
  <g id="user" transform="translate(0)">
    <path id="Path_845" data-name="Path 845" d="M92.657,11.954A5.287,5.287,0,0,0,96.634,10.2a5.971,5.971,0,0,0,1.648-4.226,5.972,5.972,0,0,0-1.648-4.226,5.393,5.393,0,0,0-7.954,0,5.971,5.971,0,0,0-1.648,4.226A5.97,5.97,0,0,0,88.68,10.2,5.288,5.288,0,0,0,92.657,11.954Zm0,0" transform="translate(-82.814 0)" fill="#d82221"/>
    <path id="Path_846" data-name="Path 846" d="M19.951,254.411a15.26,15.26,0,0,0-.194-1.568,12.719,12.719,0,0,0-.373-1.577,7.93,7.93,0,0,0-.626-1.47,5.531,5.531,0,0,0-.944-1.274,4.146,4.146,0,0,0-1.356-.882,4.546,4.546,0,0,0-1.731-.324,1.724,1.724,0,0,0-.938.412c-.281.19-.61.409-.978.652a5.51,5.51,0,0,1-1.265.577,4.753,4.753,0,0,1-3.094,0,5.5,5.5,0,0,1-1.264-.577c-.364-.241-.693-.46-.978-.653a1.722,1.722,0,0,0-.938-.412,4.541,4.541,0,0,0-1.731.325,4.141,4.141,0,0,0-1.356.882A5.531,5.531,0,0,0,1.24,249.8a7.945,7.945,0,0,0-.626,1.471,12.739,12.739,0,0,0-.372,1.576,15.2,15.2,0,0,0-.194,1.569c-.032.475-.048.968-.048,1.465a4.2,4.2,0,0,0,1.182,3.117,4.173,4.173,0,0,0,3.046,1.15H15.771A4.008,4.008,0,0,0,20,255.877c0-.5-.016-.993-.048-1.466Zm0,0" transform="translate(0 -236.145)" fill="#d82221"/>
  </g>
</svg>
